<svg t="1702452303724" class="icon" viewBox="0 0 1024 1024" version="1.1" xmlns="http://www.w3.org/2000/svg" p-id="5751" width="16" height="16"><path d="M983.04 506.88L529.408 105.472c-9.728-8.704-24.576-8.704-34.304 0L41.472 506.88c-8.192 7.168-10.752 18.432-7.168 28.672 3.584 9.728 13.312 16.384 24.064 16.384h86.528v227.84c0 85.504 69.632 154.624 154.624 154.624h288.768c2.048 0 3.584 0 5.632-0.512 6.144 0 12.8 0.512 20.48 0.512 126.464 1.024 174.08-14.848 187.904-20.992 1.536-0.512 3.584-1.536 5.12-2.56 45.056-28.672 72.192-77.824 72.192-131.072v-227.84h86.528c10.752 0 20.48-6.144 24.064-16.384 3.584-10.24 1.024-21.504-7.168-28.672zM398.336 657.92c0-20.992 16.896-38.4 38.4-38.4h150.528c20.992 0 38.4 16.896 38.4 38.4V844.8c0 19.968-15.36 36.352-34.816 38.4-1.024 0-2.048-0.512-3.584-0.512H398.336V657.92z" fill="#fb9b5f" p-id="5752"></path></svg>
