<svg t="1702451803211" class="icon" viewBox="0 0 1024 1024" version="1.1" xmlns="http://www.w3.org/2000/svg" p-id="12553" width="16" height="16"><path d="M917.289448 962.033371v-91.282285c0-35.752229-31.451429-65.965105-68.676267-65.965105l-73.610971-0.03901c-0.526629-0.058514-0.936229-0.429105-0.936229-0.926476v-18.783085c16.7936-9.489067 31.149105-24.839314 41.613409-44.041753 3.052495 0.85821 6.202514 1.316571 9.411048 1.316572 19.309714 0 35.011048-15.73059 35.011048-35.05981 0-14.043429-8.328533-26.107124-20.255696-31.695238 4.778667-12.687848 7.3728-26.204648 7.3728-39.857981 0-62.142171-50.536838-112.708267-112.659504-112.708267-62.142171 0-112.698514 50.566095-112.698515 112.708267 0 13.906895 2.555124 27.335924 7.441067 40.10179a34.884267 34.884267 0 0 0-19.855848 31.451429 35.079314 35.079314 0 0 0 35.011048 35.05981c3.052495 0 6.065981-0.438857 8.991695-1.219048 10.4448 19.143924 24.771048 34.455162 41.525638 43.924724v18.80259c0 0.565638-0.399848 0.975238-0.975238 0.975238h-76.205104a66.033371 66.033371 0 0 0-65.965105 65.955353v91.09699h-39.643429v-78.545676c0-53.033448-41.691429-90.07299-101.385752-90.07299h-47.123505a189.488762 189.488762 0 0 1-0.741181-15.36c12.053943-11.858895 21.582019-27.648 27.521219-46.265296h6.573105c13.55581 0 24.576-11.02019 24.576-24.576v-23.727543c0-12.288-9.089219-22.401219-20.8896-24.185904 25.034362-62.493257-10.503314-99.805867-11.936914-101.249219-54.935162-59.860114-111.050362-27.27741-126.936991-15.876877a19.2512 19.2512 0 0 1-6.709638 3.169524c-25.1904 5.851429-42.003505 18.314971-49.990705 37.059048-11.244495 26.38019-1.277562 58.241219 6.846172 76.975543a24.585752 24.585752 0 0 0-19.992381 24.107885v23.727543c0 13.55581 11.02019 24.576 24.576 24.576h8.864914c5.851429 18.353981 15.174705 33.967543 26.975086 45.777676 0.117029 5.15901 0 10.435048-0.390095 15.84762H200.235886c-59.684571 0-101.376 37.039543-101.376 90.07299v78.916267a9.606095 9.606095 0 0 0-7.928686 9.38179 9.752381 9.752381 0 0 0 9.752381 9.752381h815.659886a9.752381 9.752381 0 0 0 9.752381-9.752381 9.654857 9.654857 0 0 0-8.8064-9.557333zM397.155962 678.278095c2.691657 0.078019 4.944457 2.340571 4.944457 5.032229v23.727543a5.071238 5.071238 0 0 1-5.071238 5.071238h-1.921219c1.492114-8.708876 2.360076-17.788343 2.360076-27.248153 0-2.194286-0.2048-4.388571-0.312076-6.582857z m-32.3584 134.465829h23.795809l-11.888152 22.528a9.752381 9.752381 0 0 0 1.4336 11.146971l10.405791 11.342019-45.075505 68.139886 21.328457-113.156876zM219.233524 712.0896h-2.652648a5.071238 5.071238 0 0 1-5.071238-5.061486v-23.727543a5.071238 5.071238 0 0 1 5.071238-5.071238h1.891962c-0.009752 2.21379-0.03901 4.476343-0.039009 6.621867 0 5.246781 0.331581 10.337524 0.799695 15.369752v11.8784z m3.705905-80.262095c-3.696152-13.604571-5.334552-29.159619 0.175542-42.013257 5.480838-12.843886 17.408-21.230933 36.4544-25.658515a38.424381 38.424381 0 0 0 13.633829-6.30979c16.149943-11.605333 58.348495-33.499429 101.405257 13.399771 1.170286 1.219048 25.005105 26.906819 11.156724 71.826286l-3.354819-8.094476c-9.4208-24.488229-37.254095-27.540724-50.556343-27.540724-2.964724 0-5.217524 0.156038-6.368305 0.253562-38.66819-1.404343-52.974933-20.489752-53.501562-21.211429a9.684114 9.684114 0 0 0-10.532571-3.881447c-22.77181 6.075733-33.489676 28.545219-38.521905 49.230019z m14.999161 53.023695c0-9.391543 0.146286-18.236952 0.507124-26.672762 1.443352-18.500267 7.021714-45.758171 22.840076-54.623086 8.708876 8.348038 28.63299 22.528 64.199924 23.649524 0.44861-0.009752 0.926476-0.009752 1.365334-0.048762 0.292571-0.029257 30.485943-3.042743 37.449142 15.047924l12.414781 30.027581c0.185295 0.44861 0.487619 0.809448 0.721677 1.219048 0.292571 3.803429 0.536381 7.606857 0.536381 11.400533 0 55.266743-30.125105 96.938667-70.070858 96.938667-39.887238 0-69.963581-41.671924-69.963581-96.938667z m11.585829 127.882971l21.328457 113.156877-45.075505-68.139886 10.405791-11.342019a9.752381 9.752381 0 0 0 1.4336-11.146972l-11.8784-22.528h23.786057z m-131.150019 149.113905v-78.545676c0-48.752152 41.12579-70.568229 81.871238-70.568229h3.432838l13.487543 25.560991-10.912914 11.897905a9.752381 9.752381 0 0 0-0.936229 11.966171l65.935848 99.688838H118.364648z m198.480457 0h-19.368228L277.455238 855.712914c19.768076 3.072 39.643429 2.82819 59.509029-0.672914L316.854857 961.848076z m-43.222552-126.517638l-4.066743-21.562514c1.141029-7.441067 1.901714-14.648076 2.301562-21.660038a75.288381 75.288381 0 0 0 72.05059 0.039009c0.419352 5.051733 0.994743 10.20099 1.745676 15.457524-0.019505 0.516876-0.009752 1.053257-0.029257 1.560381l-4.788419 25.424457a159.78301 159.78301 0 0 1-67.213409 0.741181z m219.057981 126.517638H343.069257l65.935848-99.688838a9.752381 9.752381 0 0 0-0.936229-11.966171l-10.903162-11.897905 13.477791-25.560991h0.156038c40.7552 0 81.88099 21.816076 81.88099 70.568229v78.545676z m355.932647-137.557333c26.185143 0 49.171505 21.7088 49.171505 46.460343v90.765409h-28.525714v-61.001143a9.752381 9.752381 0 1 0-19.504762 0v61.001143h-82.553905l-10.756876-70.753524 2.145524-8.523581a17.008152 17.008152 0 0 0 10.308266 2.282058c4.87619-0.487619 9.294019-3.042743 12.151467-7.031467l37.790476-53.199238h29.774019z m-71.68 0l17.944381 0.029257-28.067352 39.5264-19.338972-17.944381 29.471696-21.611276z m-21.981866-16.618057c0.458362 2.399086 1.384838 4.622629 2.613638 6.641371l-25.02461 18.334476-21.396724-17.690819c1.423848-2.194286 2.438095-4.661638 2.945219-7.314285 0.253562-1.238552 0.390095-2.516114 0.390096-3.822934v-10.727619c13.165714 3.52061 26.897067 3.540114 40.082285 0.019505v10.708114c0 1.326324 0.136533 2.603886 0.390096 3.852191z m-22.791315 50.644114l10.005943 9.274514-3.23779 12.873143H725.77219l-2.701409-13.7216 9.089219-8.426057z m-6.007466 41.730438h11.975924l9.352533 61.469257H716.8l9.352533-61.469257z m114.44419-192.804571c0 8.97219-7.850667 16.091429-16.647314 15.467276 3.452343-9.264762 6.163505-19.075657 7.831162-29.403429 5.188267 2.516114 8.816152 7.7824 8.816152 13.945905z m-211.646171 0c0-5.948952 3.413333-11.029943 8.406552-13.653334 1.657905 10.230248 4.349562 19.943619 7.772648 29.12061-8.591848 0.331581-16.1792-6.670629-16.1792-15.457524z m18.919619-82.700191a9.732876 9.732876 0 0 0-6.075734 2.584381c4.33981-47.386819 44.27581-84.631162 92.764648-84.631162 48.547352 0 88.493105 37.361371 92.735391 84.845715-0.516876-0.487619-0.945981-1.053257-1.560381-1.423848a9.703619 9.703619 0 0 0-7.733638-0.994743c-64.648533 18.88061-89.166019-25.492724-90.141258-27.355429a9.771886 9.771886 0 0 0-17.300723-0.019504c-10.503314 20.089905-48.820419 26.302171-62.688305 26.99459z m6.807162 42.305829c0-7.899429 0.633905-15.779352 1.882209-23.522743 14.277486-1.696914 44.665905-7.285029 62.493257-24.966095 13.341257 15.311238 42.939733 38.843733 93.915429 27.940571 0.945981 6.787657 1.4336 13.653333 1.4336 20.548267 0 60.308724-35.830248 109.392457-79.872 109.392457s-79.852495-49.073981-79.852495-109.392457z m37.185828 157.481447l25.521981 21.0944-19.514514 18.100419-25.570743-39.165561 19.563276-0.029258z m-120.529676 46.421334a46.509105 46.509105 0 0 1 46.460343-46.460343h31.158857l34.211352 52.370286a16.9984 16.9984 0 0 0 23.01562 5.256533l1.687161 8.591848-10.786133 70.997333h-77.726476v-60.991391a9.752381 9.752381 0 1 0-19.504762 0v61.001143h-28.515962v-90.765409zM59.947886 961.848076H44.207543a9.752381 9.752381 0 1 0 0 19.504762h15.740343a9.752381 9.752381 0 1 0 0-19.504762zM979.792457 961.848076h-25.161143a9.752381 9.752381 0 1 0 0 19.504762h25.161143a9.752381 9.752381 0 1 0 0-19.504762zM260.583619 363.7248h37.351619l-25.053867 56.534552a9.752381 9.752381 0 0 0 14.160458 12.180724l107.919847-68.715276h36.864v23.698286c0 25.1904 20.48 45.6704 45.6704 45.6704h198.334172l107.9296 68.725028a9.781638 9.781638 0 0 0 11.605333-0.838704 9.752381 9.752381 0 0 0 2.545371-11.34202l-25.063619-56.544304h37.351619c25.1904 0 45.680152-20.48 45.680153-45.660648v-65.223924a9.752381 9.752381 0 1 0-19.504762 0v65.223924a26.194895 26.194895 0 0 1-26.175391 26.155886H757.857524a9.752381 9.752381 0 0 0-8.913676 13.702095l18.051657 40.725943-83.090286-52.906667a9.79139 9.79139 0 0 0-5.237029-1.521371H477.496076a26.194895 26.194895 0 0 1-26.17539-26.155886V157.813029a26.263162 26.263162 0 0 1 26.17539-26.292419h332.702476a26.263162 26.263162 0 0 1 26.175391 26.292419v100.030171a9.752381 9.752381 0 1 0 19.504762 0V157.813029c0-25.258667-20.48-45.797181-45.680153-45.797181H638.976V88.43459c0-25.248914-20.489752-45.787429-45.680152-45.787428H260.583619c-25.1904 0-45.680152 20.538514-45.680152 45.787428v100.039924a9.752381 9.752381 0 1 0 19.504762 0V88.43459a26.263162 26.263162 0 0 1 26.17539-26.282666h332.702476a26.263162 26.263162 0 0 1 26.175391 26.282666v23.581258H477.496076c-4.798171 0-9.342781 0.955733-13.692343 2.340571H309.267505a9.752381 9.752381 0 1 0 0 19.504762h129.482362a45.436343 45.436343 0 0 0-6.924191 23.951848v35.644952h-123.952762a9.752381 9.752381 0 1 0 0 19.504762h123.952762v61.069409a9.489067 9.489067 0 0 0-4.837181-1.462857H309.267505a9.752381 9.752381 0 1 0 0 19.504762h117.72099a9.489067 9.489067 0 0 0 4.827429-1.462857v53.608838h-39.692191c-1.852952 0-3.676648 0.536381-5.237028 1.521372l-83.090286 52.896914 18.051657-40.716191a9.752381 9.752381 0 0 0-8.913676-13.702095H260.583619a26.204648 26.204648 0 0 1-26.17539-26.17539v-65.214172a9.752381 9.752381 0 1 0-19.504762 0v65.214172c0 25.1904 20.48 45.680152 45.680152 45.680152z" p-id="12554" fill="#fb9b5f"></path><path d="M526.082438 203.229867h235.441981a9.752381 9.752381 0 1 0 0-19.504762H526.082438a9.752381 9.752381 0 1 0 0 19.504762zM762.928762 262.836419H526.072686a9.752381 9.752381 0 1 0 0 19.504762H762.928762a9.752381 9.752381 0 1 0 0-19.504762zM761.524419 341.947733h-117.711238a9.752381 9.752381 0 1 0 0 19.504762h117.711238a9.752381 9.752381 0 1 0 0-19.504762zM705.136152 678.024533a9.752381 9.752381 0 1 0-19.504762 0v12.980419a9.752381 9.752381 0 1 0 19.504762 0v-12.970666zM773.69539 700.757333a9.752381 9.752381 0 0 0 9.752381-9.752381v-12.970666a9.752381 9.752381 0 1 0-19.504761 0v12.970666a9.752381 9.752381 0 0 0 9.75238 9.752381zM734.734629 746.525257c9.323276-0.03901 18.373486-4.447086 26.897066-13.116952a9.752381 9.752381 0 1 0-13.906895-13.672838c-4.739657 4.817676-9.137981 7.265524-13.06819 7.285028h-0.03901c-3.969219 0-8.455314-2.477105-13.321752-7.343543a9.752381 9.752381 0 1 0-13.789867 13.789867c8.660114 8.669867 17.768838 13.058438 27.111619 13.058438h0.117029z" p-id="12555" fill="#fb9b5f"></path></svg>
