<svg t="1702452137803" class="icon" viewBox="0 0 1024 1024" version="1.1" xmlns="http://www.w3.org/2000/svg" p-id="3022" width="16" height="16"><path d="M112.293467 496.146943a19.270836 19.270836 0 0 1-9.095835-21.197919 415.055265 415.055265 0 0 1 44.110944-108.899495 419.950058 419.950058 0 0 1 85.870845-105.12241 451.168812 451.168812 0 0 1 114.33387-73.017197 19.270836 19.270836 0 0 1 15.879169 35.130734 389.675574 389.675574 0 0 0-182.706796 162.279709 376.185989 376.185989 0 0 0-40.064068 98.396889 19.270836 19.270836 0 0 1-28.328129 12.333335z" fill="#fb9b5f" p-id="3023"></path><path d="M888.676907 816.428237a19.270836 19.270836 0 0 1-7.053126-26.323962 382.487553 382.487553 0 0 0 47.695319-134.606789 376.629218 376.629218 0 0 0 3.661459-79.858344 406.460472 406.460472 0 0 0-124.104184-271.911496 19.270836 19.270836 0 0 1 25.726566-28.694275 402.644847 402.644847 0 0 1 94.099492 130.290122 479.651108 479.651108 0 0 1 42.665631 167.656273 414.322974 414.322974 0 0 1-3.969792 87.797929 421.819329 421.819329 0 0 1-52.397403 148.558874 19.270836 19.270836 0 0 1-26.323962 7.091668z" fill="#fb9b5f" p-id="3024"></path><path d="M314.271099 963.252736a464.215168 464.215168 0 0 1-81.862511-60.3948 19.270836 19.270836 0 1 1 25.900003-28.540108 426.964642 426.964642 0 0 0 75.15626 55.557821 406.807348 406.807348 0 0 0 121.772413 46.789589 402.760472 402.760472 0 0 0 276.652121-39.273963 19.270836 19.270836 0 1 1 19.36719 33.319275 400.004742 400.004742 0 0 1-140.522935 47.94584 475.719857 475.719857 0 0 1-162.95419-4.085417 446.563082 446.563082 0 0 1-133.508351-51.318237z" fill="#fb9b5f" p-id="3025"></path><path d="M540.799776 221.614614m-221.614614 0a221.614614 221.614614 0 1 0 443.229228 0 221.614614 221.614614 0 1 0-443.229228 0Z" fill="#fb9b5f" p-id="3026"></path><path d="M540.799776 38.541672a183.072942 183.072942 0 1 0 181.319295 184.826588v-1.753646a182.417733 182.417733 0 0 0-181.319295-183.072942m0-38.541672a221.614614 221.614614 0 1 1-221.614614 221.614614 221.614614 221.614614 0 0 1 221.614614-221.614614z" fill="#fb9b5f" p-id="3027"></path><path d="M213.195564 741.927185m-202.343778 0a202.343778 202.343778 0 1 0 404.687556 0 202.343778 202.343778 0 1 0-404.687556 0Z" fill="#fb9b5f" p-id="3028"></path><path d="M213.195564 578.125079a163.802106 163.802106 0 1 0 163.802106 163.802106 163.802106 163.802106 0 0 0-163.802106-163.802106m0-38.541672a202.343778 202.343778 0 1 1-202.343778 202.343778 202.343778 202.343778 0 0 1 202.343778-202.343778z" fill="#fb9b5f" p-id="3029"></path><path d="M858.768569 732.291767m-154.166687 0a154.166688 154.166688 0 1 0 308.333375 0 154.166688 154.166688 0 1 0-308.333375 0Z" fill="#fb9b5f" p-id="3030"></path><path d="M858.768569 616.666751a115.625016 115.625016 0 1 0 115.625016 115.625016 115.625016 115.625016 0 0 0-115.625016-115.625016m0-38.541672a154.166688 154.166688 0 1 1-154.166687 154.166688 154.166688 154.166688 0 0 1 154.166687-154.166688z" fill="#fb9b5f" p-id="3031"></path></svg>
